# xmcd
#
# Track frame offsets:
#	150
#	17802
#	29960
#	44425
#	58172
#	70072
#	82467
#	95312
#	106885
#	124197
#	142765
#	154235
#	165757
#	177950
#	190575
#	205555
#	220395
#	230947
#	247160
#	260630
#
# Disc length: 3619 seconds
#
# Revision: 1
# Processed by: cddbd v1.5.1PL0 Copyright (c) Steve Scherf et al.
# Submitted via: audiograbber 1.83.01
#
DISCID=260e2114
DTITLE=Various Artist - Country Magic [CD2]
DYEAR=1900
DGENRE=General
TTITLE0=Willie Nelson - Stardust
TTITLE1=Roger Miller - Little Green Apples
TTITLE2=Tammy Wynette - Crying In The Rain
TTITLE3=Charlie Rich - Everytime You Touch Me (I Get High)
TTITLE4=Roger Miller - By The Time I Get To Phoenix
TTITLE5=Dolly Parton - Elusive Butterfly
TTITLE6=Charley Pride - Crystal Chandeliers
TTITLE7=Eddy Arnold - Rambling Rose
TTITLE8=Lynn Anderson - The Lonely Hearts Cafe
TTITLE9=Willie Nelson - To Each His Own
TTITLE10=Crystal Gayle - It's Alright With Me
TTITLE11=Don Gibson - Oh Lonesome Me
TTITLE12=Slim Whitman - My Special Angel
TTITLE13=Loretta Lynn - There Goes My Everything
TTITLE14=Marty Robbins - Some Memories Just Won't Die
TTITLE15=Eddy Arnold - Can't Take My Eyes Off You
TTITLE16=Dolly Parton - Bubbling Over
TTITLE17=Willie Nelson - Blue Skies
TTITLE18=Lynn Anderson - Top Of The World
TTITLE19=Bobby Goldsboro - Hello Summertime
EXTD=Country Magic\nReaders Digist
EXTT0=
EXTT1=
EXTT2=
EXTT3=
EXTT4=
EXTT5=
EXTT6=
EXTT7=
EXTT8=
EXTT9=
EXTT10=
EXTT11=
EXTT12=
EXTT13=
EXTT14=
EXTT15=
EXTT16=
EXTT17=
EXTT18=
EXTT19=
PLAYORDER=
